<svg xmlns="http://www.w3.org/2000/svg" viewBox="0 0 980 980" fill="none" shape-rendering="auto"><metadata xmlns:rdf="http://www.w3.org/1999/02/22-rdf-syntax-ns#" xmlns:xsi="http://www.w3.org/2001/XMLSchema-instance" xmlns:dc="http://purl.org/dc/elements/1.1/" xmlns:dcterms="http://purl.org/dc/terms/"><rdf:RDF><rdf:Description><dc:title>Lorelei</dc:title><dc:creator>Lisa Wischofsky</dc:creator><dc:source xsi:type="dcterms:URI">https://www.figma.com/community/file/1198749693280469639</dc:source><dcterms:license xsi:type="dcterms:URI">https://creativecommons.org/publicdomain/zero/1.0/</dcterms:license><dc:rights>Remix of „Lorelei” (https://www.figma.com/community/file/1198749693280469639) by „Lisa Wischofsky”, licensed under „CC0 1.0” (https://creativecommons.org/publicdomain/zero/1.0/)</dc:rights></rdf:Description></rdf:RDF></metadata><mask id="viewboxMask"><rect width="980" height="980" rx="0" ry="0" x="0" y="0" fill="#fff" /></mask><g mask="url(#viewboxMask)"><g transform="translate(10 -60)"><path fill-rule="evenodd" clip-rule="evenodd" d="M558 223a340 340 0 0 0-141 0h-5c-23-1-46 3-67 12-23 10-42 25-59 43-27 30-47 67-61 104a538 538 0 0 0-26 96c-13 34-24 68-33 103-7 27-12 55-12 82 0 19 2 37 8 55 6 16 15 32 29 42l5 3 3 2v1c5 24 9 47 16 71l1 4 4 14c1 2 4 1 5-1l1-7-1-3a822 822 0 0 1-2-69c3 16 9 32 17 47l15 19a38 38 0 0 0 17 12c2 0 4 1 6-1l-1-9-1-6 2 1c12 8 25 15 40 17h20c7 0 13-3 20-5 26-5 53-8 79-11a417 417 0 0 1 125 4h1c8 7 17 10 28 12 16 3 33 3 49 0 4-1 10-2 14 0l2 1c2 1 3 3 6 2 5-1 9-7 12-11 6-10 10-22 13-33v-1l2 9c2 6 3 13 3 19v17c5 0 8-2 11-5 5-4 8-10 10-16 3-13 5-25 6-38a841 841 0 0 0 0-45l2 8c3 17 6 34 4 51l-8 26-1 3-2 4c3 0 5-3 7-4 6-7 9-16 11-25 3-8 4-17 3-26 0-20-3-38-7-58v-1l-1-5c-3-16-6-32-6-48l2-16 1-10v-1l8 21 2 7c1 1 3 2 5 1l2-7 1-2c5-17 7-34 8-51a224 224 0 0 0-5-47c4 17 6 34 7 51v1c0 16 0 31-2 46l3-2v-2c6-11 8-24 8-36 1-14 1-29-1-43l-8-36-2-8a463 463 0 0 1-13-120l-1-27-3-1-1-25 1-6 1-2c1-4 6-7 10-5 4 3 4 7 4 11v17a2790 2790 0 0 1 3 54c4-5 7-12 9-18 6-18 6-38 4-56-2-14-7-27-15-38-9-14-22-26-35-37-16-14-35-26-55-35l-2-1-7-4 12 4 3 1c18 6 38 13 54 23 11 7 19 16 28 25l4 6 2 2h1c0-7-4-14-8-19-5-8-12-15-20-20-12-10-27-16-41-22-33-13-68-20-102-25l-11-2-14-2ZM191 541v-1c-11 38-22 76-24 115-1 22 2 44 9 65 5 12 12 24 22 33a906 906 0 0 1-9-193l1-9 1-10Z" fill="#000000"/><path d="M486 236c57-2 115 18 159 56a209 209 0 0 1 73 190c-1 4-1 8-4 12l-1-3v-33a215 215 0 0 0-172-206 235 235 0 0 0-270 153c-12 37-14 78-6 116 6-2 12-2 17-2 2 1 5 1 6 3s0 3-1 4l-12 4c-14 3-27 8-37 18a63 63 0 0 0-22 45c0 12 3 24 8 35 8 13 19 24 33 31 18 10 41 13 62 7 2-1 4-2 6-1s3 4 4 6l15 30a215 215 0 0 0 72 63c28 15 59 21 90 26 3 1 8 1 10 4 1 2 0 3-2 4l-11 1a231 231 0 0 1-147-62c5 18 8 36 8 54 0 12-2 23-6 34-5 10-11 18-19 26a196 196 0 0 1-60 43c-1-1 1-2 2-3l17-14c13-12 25-23 35-38a93 93 0 0 0 17-65l-4-39-2-10-12-17c-5-10-11-20-13-31a93 93 0 0 1-96-31 81 81 0 0 1-19-51c0-12 3-23 8-34 9-16 23-29 40-36-8-31-8-62-3-93 8-40 26-77 51-108 45-54 115-87 186-88Z" fill="#000"/><path d="M541 252a214 214 0 0 1 172 206v33c-1 5-2 10-1 15-2 2-3 3-3 5-3 18-1 37 1 55 4 29 6 59 2 88-3 28-13 56-30 79-16 21-38 34-62 43-15 6-30 9-45 13-11 2-22 4-32 8 1 2 4 1 6 2 12 1 24-1 36-2-5 8-8 17-9 26-2 10 2 19 9 26 6 7 15 11 24 14 5 2 11 3 17 3 7 9 13 18 14 30 2 12-1 24-8 34-9 14-22 23-37 30-18 9-38 15-57 18a352 352 0 0 1-192-23c-18-10-38-23-48-42-4-7-8-16-6-24 18-10 33-23 47-38 8-8 14-16 19-26 4-11 6-22 6-34 0-18-3-36-8-54a235 235 0 0 0 147 62l11-1c2-1 3-2 2-4-2-3-7-3-10-4-31-5-62-11-90-26-18-10-36-22-50-37-8-8-16-17-22-26l-15-30c-1-2-2-5-4-6s-4 0-6 1a82 82 0 0 1-95-38c-5-11-8-23-8-35 1-17 9-34 22-45 10-10 23-15 37-18l12-4c1-1 2-2 1-4s-4-2-6-3c-5 0-11 0-17 2-8-38-6-79 6-116a236 236 0 0 1 270-153Z" fill="#ffffff"/><path d="m712 506 3 3 1 13 3 45c3 20 5 40 5 60 0 16-1 32-5 47-6 28-20 56-40 76a174 174 0 0 1-88 46c-1 9-4 16-4 25-1 6 2 10 5 15 8 8 18 14 28 19l18 9c-3 3-8 1-12 2-6 0-12-1-17-3-9-3-18-7-24-14-7-7-11-16-9-26 1-9 4-18 9-26-12 1-24 3-36 2-2-1-5 0-6-2 10-4 21-6 32-8 15-4 30-7 45-13 24-9 46-22 62-43 17-23 27-51 30-79 4-29 2-59-2-88-2-18-4-37-1-55 0-2 1-3 3-5ZM262 566c6 0 12 1 15 6 2 3 2 7 1 10-3 8-9 14-11 22-1 4 0 7 3 9 7 5 16 7 24 10l-2 2h-11c-6-1-12-2-17-5-5-4-9-11-7-18 2-9 9-15 12-23-7-4-14-2-20-8 3-4 8-6 13-5Z" fill="#000"/><path d="M686 474c5 2 10 7 12 12 3 8 3 17 1 25-1 4-4 8-9 8s-9-5-8-10c0-8 3-15 1-23l-5-4c-6 0-12 3-17 5 2 3 4 5 4 8 2 7 1 14 0 21-1 8-4 14-9 20-3 2-7 6-11 7-5 1-10-1-12-5-4-5-4-11-3-16l-6 8c-1 2-2 3-4 3-1-2 0-6 1-8a95 95 0 0 1 44-49c6-3 14-4 21-2ZM470 481c18 6 35 17 46 33 3 4 6 9 7 14 1 3 1 5-1 6-3 1-6-3-8-5-3 6-2 13-6 18-3 4-7 8-11 10-6 3-13 3-19 1s-10-8-14-13c-5-10-5-20-4-30 1-8 4-15 9-21-14-5-29-8-42-2-10 4-16 11-19 21-1 5 0 11-3 15-3 3-9 3-12 0s-4-7-3-11c1-12 7-22 16-30 6-4 12-7 19-9 15-4 31-3 45 3Z" fill="#000000"/><path d="M480 404c10 1 19 0 29 3 9 3 18 10 22 19 4 6 2 16-6 19-6 4-15 3-23 2-20-3-40-9-60-14l-20-4-10-2-4-4c2-4 6-6 10-7l20-7 18-3 24-2ZM656 410c8 1 15 4 22 7l9 4c2 2 3 6 1 8l-10 4c-17 4-33 11-51 12l-9 1c-3 0-6-2-8-4-3-2-4-5-4-9 0-7 2-15 8-20 4-3 11-4 16-5 8 0 17 0 26 2Z" fill="#000000"/><path d="M594 572a37 37 0 0 1 19 29c0 9-5 18-13 22l-17 7c-4 1-6 2-9 0-2-3-1-4 1-6 6-5 15-7 21-12 3-2 5-5 5-9 0-10-5-17-7-26v-5Z" fill="#000000"/><path d="M599 665c5 0 10 3 13 7 3 6 4 13 5 20 1 11-1 23-6 33-5 9-13 13-22 15-11 3-23 3-34 3-4 0-9-1-13-3 7-3 13-3 20-4l21-3c6-1 14-4 18-9s6-12 7-19l-4 6c-4 3-9 3-14 4l-26 4c-7 1-15 3-23 0l-11 23c-3 1-3-2-3-4 0-7 3-14 6-20 7-17 21-32 36-42 9-6 19-11 30-11Z" fill="#000000"/><path d="M492 216c35 0 70 7 103 17 23 6 45 14 66 24 23 12 45 25 63 44 15 13 27 28 35 46 3 8 5 17 6 26 1 13 0 26-2 39-2 10-6 22-13 30l-2-6c0-20-5-40-12-59 1 19-3 40-15 55-4 4-8 5-12 7s-9 2-13 2c-7-1-15-4-22-7-2-2-5-3-6-6-4-13-5-27-9-40l-6-17c-2 10-4 19-8 28-3 11-8 21-15 30l-8 7-3-14-4-17c-5-21-14-42-26-61v29c-2 16-3 31-10 45-3 7-4 14-10 18-8 4-18 5-27 5-13 0-28 2-41-1-6-2-8-7-11-12l-14-31-11-20c-2 22-2 43-1 64-1 2 0 4-2 5-1 2-3 1-5 0-9-4-16-11-23-18-9-12-19-24-25-37l2 17c3 12 7 24 12 35l2 8-5-2c-7-5-12-12-17-19-7-12-11-27-12-41-5 19-7 39-8 59l-2 10c-1 3-3 4-6 5l-33 5h-11a670 670 0 0 0 13 152l15 61c1 3 0 5-2 7-15-8-26-23-36-38v63l-3 6a245 245 0 0 1-64-94l-6-16a397 397 0 0 1-27-151c1-40 9-80 26-116a217 217 0 0 1 76-91l31-17c11-4 22-9 34-10 10-1 21-3 31 0 4 1 8-1 12-2 20-4 41-6 61-6Z" fill="#000000"/></g><g transform="translate(10 -60)"></g></g></svg>